<?xml version="1.0" encoding="utf-8"?>
<!-- Generator: Adobe Illustrator 23.0.2, SVG Export Plug-In . SVG Version: 6.00 Build 0)  -->
<svg version="1.1" id="dance1" xmlns="http://www.w3.org/2000/svg" xmlns:xlink="http://www.w3.org/1999/xlink" x="0px" y="0px"
	 viewBox="0 0 80 80" style="enable-background:new 0 0 80 80;" xml:space="preserve">
<style type="text/css">
	.st0{fill:#FFFFFF;stroke:#000000;stroke-miterlimit:10;}
</style>
<path id="left-arm" class="st0" d="M26.27,21.07c0,0-6.54-11.81-9.09-11.45c-2.54,0.36-6.9-0.01-6.9-0.01l2.91,2.92l2-0.82
	c0,0,3.45,1,4.72,4.82c0,0,7.54,10.13,9.04,9.97C30.45,26.34,26.27,21.07,26.27,21.07z"/>
<path id="body" class="st0" d="M37.71,26.5c0,0,24.35,1.11,24.89,2.02c0.55,0.91,4.36,1.09,4.36,1.09l-5.27,0.91h-2
	c0,0-17.08-2-17.44,0c-0.36,2,1.94,2.54,1.94,2.54s5.51-1.45,6.06,0s2.48,2.73,1.24,4.72s-7.3,9.81-7.3,9.81s-3.21,2.18,4.6,5.81
	s6.9,4,6.9,4l5.63,2.91c0,0,0.73-1.64,2.91,0c2.18,1.64,2.73,2.73,2.73,2.73l1.82,1.45l-5.81-1.09c0,0-9.33-2.36-11.48-4.72
	s-8.51-5.09-9.42-6.72s-5.27,5.09-8.54,7.09l-6.9,7.09c0,0-1.27,2.73-2.18,4.54c-0.91,1.82-2.73,2.54-2.73,2.54l-4,1.27l4-4.72
	c0,0,3.45-7.09,5.27-7.81c1.82-0.73,10.9-13.26,13.26-12.9c0,0,0.55-8.6,2.36-8.93c0,0,0-3.42-2.73-4.15
	c-2.73-0.73-6.47-4-5.81-5.09C34.74,29.79,39.53,27.38,37.71,26.5z"/>
<ellipse id="head" transform="matrix(0.8089 -0.588 0.588 0.8089 -8.0921 23.5027)" class="st0" cx="32.11" cy="24.2" rx="3.91" ry="6.36"/>
<path id="tutu" class="st0" d="M38.87,38.87l10.72-7.91c0,0,8.55,3.83,6.51,5.23s-3.32,1.49-4.21,3.81
	c-0.89,2.32-4.25,2.19-4.25,2.19s-3.54,0.89-3.67,2.55C43.85,46.4,40,46.91,40,46.91s-1.77,0.26-1.89-1.15
	c-0.13-1.4-1.28-5.77-1.28-5.77L38.87,38.87z"/>
</svg>
