<?xml version="1.0" encoding="utf-8"?>
<!-- Generator: Adobe Illustrator 23.0.2, SVG Export Plug-In . SVG Version: 6.00 Build 0)  -->
<svg version="1.1" id="dance1" xmlns="http://www.w3.org/2000/svg" xmlns:xlink="http://www.w3.org/1999/xlink" x="0px" y="0px"
	 viewBox="0 0 80 80" style="enable-background:new 0 0 80 80;" xml:space="preserve">
<style type="text/css">
	.st0{fill:#FFFFFF;stroke:#000000;stroke-miterlimit:10;}
</style>
<ellipse id="head" transform="matrix(0.9993 -0.0363 0.0363 0.9993 -0.6405 1.3499)" class="st0" cx="36.9" cy="18.33" rx="3.28" ry="5.03"/>
<path id="body" class="st0" d="M36.02,23.13v2.21c0,0-7.74-2.4-7.49-7.64c0.26-5.25,4.98-11.63,4.98-11.63l3.39-3.83l1.33-0.64
	l-2.81-1.02l-1.4,1.02c0,0-5.12,4.6-5.5,6.51s-2.67,5.49-2.67,7.02s-1.79,4.6,0,5.62c1.79,1.02,2.17,5.36,4.85,5.74
	c2.68,0.38,3.7,1.23,3.7,1.23s1.02-0.34,1.15,2.98s-0.38,4.47-0.38,6.77c0,2.3-0.38,5.11-2.04,13.79
	c-1.66,8.68-0.64,7.28-3.32,11.36s-8.55,3.83-6.89,4.98c1.66,1.15,3.7,0,3.7,0s2.26-1.02,3.81-1.02s2.44-0.89,2.44-1.53
	s4.48-12.77,4.03-13.91c-0.45-1.15,3.1-5.11,3.1-5.11s1.43,3.06,1.43,3.83s0.13,4.98,0,7.28c-0.13,2.3-0.91,4.21,0.06,5.36
	c0.96,1.15,0.06,1.53,0,2.94c-0.06,1.4,2.5,0.89,2.5,0.89s2.55-0.77,3.7,0c1.15,0.77,3.96,0.77,3.96,0.77l-3.83-2.55l-2.3-1.79
	c0,0-0.89-1.66-1.28-3.32c-0.38-1.66,0.38-6.51-0.51-10.09l-0.64-5.23l-1.28-11.36v-2.81l0.38-2.22c0,0,6-6.59,4.98-12.08
	c-1.02-5.49-3.19-11.11-3.19-11.11l-2.81-2.68l0.13,2.17c0,0,0.26,3.57,0.51,4.85c0.26,1.28,2.17,5.36,1.53,6.13
	c-0.64,0.77,2.3,1.15-0.77,5.11c0,0-0.43,2.68-2.57,5.11l-1.96-2.11L36.02,23.13z"/>
<path id="tutu" class="st0" d="M32.3,41.08l10.86-2c0,0,6.94,4.68,5.51,5.72s-5.13,0.55-5.13,0.55s1.12,2.63-1.3,2.63
	c-2.42,0-4.14-1.52-4.14-1.52s-1.25,2.54-2.74,1.49c-1.49-1.04-3.54-0.61-3.54-0.61s-1.65,0.08-1-1.5S32.3,41.08,32.3,41.08z"/>
</svg>
