<?xml version="1.0" encoding="utf-8"?>
<!-- Generator: Adobe Illustrator 23.0.2, SVG Export Plug-In . SVG Version: 6.00 Build 0)  -->
<svg version="1.1" id="dance1" xmlns="http://www.w3.org/2000/svg" xmlns:xlink="http://www.w3.org/1999/xlink" x="0px" y="0px"
	 viewBox="0 0 80 80" style="enable-background:new 0 0 80 80;" xml:space="preserve">
<style type="text/css">
	.st0{fill:#FFFFFF;stroke:#000000;stroke-miterlimit:10;}
</style>
<ellipse id="head" transform="matrix(0.5 -0.866 0.866 0.5 -7.7256 30.9967)" class="st0" cx="22.98" cy="22.19" rx="7.12" ry="4.57"/>
<path id="body" class="st0" d="M17.99,26.57l-2.66,4.51c0,0-4.76,8.66,2.66,20.52c0,0,2.44,4.63,2.44,6.64
	c0,2.02,3.8,6.29,5.81,5.46c2.02-0.83,5.22-3.8,5.34-5.46c0.12-1.66,3.8-6.29,3.68-8.42s11.98-6.68,11.98-7.61
	c0-0.93,4.86,2.98,4.86,4.05s2.37,2.25,2.96,2.25c0.59,0,8.18,4.39,8.78,5.22c0.59,0.83-2.85,2.96,0,3.2c2.85,0.24,7,1.54,8.06,2.85
	c1.07,1.3,3.68,1.3,3.68,1.3l-4.86-5.22c0,0-3.91-5.34-8.06-6.88s-7.59-7.16-8.54-6.78c-0.95,0.38-0.59-3.54-3.56-3.78
	c-2.96-0.24-7.59,1.07-7.59,1.07h-5.46l-0.83,1.42l-1.19,2.25l1.42-6.17c0,0,2.25-0.83,4.63,0.12c2.37,0.95,12.1-0.24,12.1-0.24
	l7.59,1.9c0,0,4.98,2.96,6.05,2.61c1.07-0.36,3.44-0.71,5.46-0.71c2.02,0,4.86-1.42,4.86-1.42l-12.1-2.13c0,0-6.29-0.83-10.56-2.02
	c0,0-8.58-2.02-10.81-1.9c-2.23,0.12-8.76-0.36-8.76-0.36s-1.54-2.49-3.08,0.59c-1.54,3.08-3.68,11.15-3.68,11.15l-0.83,2.02
	c0,0-6.29-7.23-7.12-9.01c-0.83-1.78-2.73-3.2-2.02-4.63c0.71-1.42,0.77-4.63,0.77-4.63S9.99,57.41,8.33,59.31
	c-1.66,1.9-5.93,3.44-5.93,3.44l6.17,0.24c0,0,3.68-0.47,4.15-3.44c0.47-2.96,2.49-9.84,2.49-9.84l3.11-22.45"/>
<path id="tutu" class="st0" d="M30.21,42.21L18.08,59.42c0,0,3.64,10.48,5.31,8.01c1.67-2.46,2.47-5.42,4.17-4.96
	c1.7,0.46,4.97-3.34,3.75-4.29c-1.22-0.95,1.54-3.66,1.54-3.66s4.16-1.15,2.78-2.95c-1.38-1.8-1.19-2.62,0.71-3.74
	s2.21-1.93,0.26-2.72C34.66,44.33,30.21,42.21,30.21,42.21z"/>
</svg>
