<?xml version="1.0" encoding="utf-8"?>
<!-- Generator: Adobe Illustrator 23.0.2, SVG Export Plug-In . SVG Version: 6.00 Build 0)  -->
<svg version="1.1" id="dance1" xmlns="http://www.w3.org/2000/svg" xmlns:xlink="http://www.w3.org/1999/xlink" x="0px" y="0px"
	 viewBox="0 0 80 80" style="enable-background:new 0 0 80 80;" xml:space="preserve">
<style type="text/css">
	.st0{fill:#FFFFFF;stroke:#000000;stroke-miterlimit:10;}
</style>
<ellipse id="head" transform="matrix(0.8916 -0.4528 0.4528 0.8916 -12.1186 18.2406)" class="st0" cx="32.04" cy="34.44" rx="2.74" ry="4.47"/>
<path id="body" class="st0" d="M33.48,38.59l-1.44,2.07c0,0-8.11-13.33-7.34-15.54s0.89-5.4,0.89-5.4l-2.55,4.6
	c0,0,0.77,7.72,2.43,10.12s2.68,6.73,4.09,7.12c1.4,0.38,3.93,3.19,3.93,3.19s1.43,2.17,0.92,2.68c-0.51,0.51-8.17,0-8.17,0
	s-3.57,0.77-5.49,2.55c-1.91,1.79-8.81-0.26-9.7-0.77c-0.89-0.51-5.87-1.15-5.87-1.15S4.28,46.4,3,46.02c-1.28-0.38,0,1.79,0,1.79
	s0.64,2.59,2.68,2.89s4.98,1.07,7.28,1.2c2.3,0.13,8.68,1.4,8.68,1.4s9.45-2.04,10.41-2.17c0.96-0.13,2.87,0,5.55,0.77
	s7.4,1.4,7.4,1.4s-0.89-1.66,2.3-1.02c3.19,0.64,4.34,2.3,4.34,2.3s6.51,1.15,8.81,0c2.3-1.15,6.77-1.79,8.04-1.79
	s4.34,0.89,4.34,0.89l3.57-0.89l-9.06-1.66c0,0-4.98-0.13-7.91,0.26c-2.94,0.38-6.89-0.26-6.89-0.26l-3.57-2.17l-7.79-1.79
	l-1.75-0.26l-1.57-3.32c0,0,1.02-1.02,0.64-2.3c-0.38-1.28-1.15-4.47-1.15-4.47s-6.13-14.17-8.3-15.45s-2.17-1.28-2.17-1.28
	l1.79,2.94l3.38,6.89c0,0,5.26,5.61,2.02,8.48C30.83,41.3,33.48,38.59,33.48,38.59z"/>
<path id="tutu" class="st0" d="M29.78,48.58l9.29-4.2c0,0,7.19,2.71,6.13,3.97c-1.06,1.26-4.48,1.63-4.48,1.63s1.55,2.13-0.61,2.66
	s-4.02-0.47-4.02-0.47s-0.58,2.57-2.14,1.95c-1.55-0.62-3.29,0.23-3.29,0.23s-1.46,0.44-1.21-1.13S29.78,48.58,29.78,48.58z"/>
</svg>
