<?xml version="1.0" encoding="utf-8"?>
<!-- Generator: Adobe Illustrator 23.0.2, SVG Export Plug-In . SVG Version: 6.00 Build 0)  -->
<svg version="1.1" id="dance1" xmlns="http://www.w3.org/2000/svg" xmlns:xlink="http://www.w3.org/1999/xlink" x="0px" y="0px"
	 viewBox="0 0 80 80" style="enable-background:new 0 0 80 80;" xml:space="preserve">
<style type="text/css">
	.st0{fill:#FFFFFF;stroke:#000000;stroke-miterlimit:10;}
</style>
<ellipse id="head" transform="matrix(0.9993 -0.0363 0.0363 0.9993 -0.6405 1.3499)" class="st0" cx="36.9" cy="18.33" rx="3.28" ry="5.03"/>
<path class="st0" d="M36.41,23.28v2.18h-4.05c0,0-7.66-4.44-8.43-7.84s-3.06-5.31-3.06-5.31l-4.72-3.57l-4.47-1.79l1.66,1.79
	l4.72,4.21c0,0,2.3,0.89,2.3,2.17s0.26,4.34,1.4,4.85c1.15,0.51,5.23,4.98,7.02,5.49c1.79,0.51,5.11,2.43,6,2.17
	c0.89-0.26,1.98,2.81,1.63,4.09s-0.61,6.13-0.61,6.13S23.68,48.7,23.04,51.77c0,0-3.57,2.17-3.57,3.45s-6.26,4.47-6.26,4.47h2.68
	c0,0,4.85-0.13,5.62-1.53c0.77-1.4,2.57-4.21,2.57-4.21s4.2-2.94,7.77-7.53s6-5.62,6-5.62l13.28-3.57c0,0,17.74-8.29,18.38-10.47
	s2.55-6.64,2.55-6.64l0.77-2.48l-3.45,2.86l-0.64,2.43c0,0,0.64,0.13-1.15,1.91c-1.79,1.79-12.38,6.89-12.38,6.89
	s-4.09,3.45-4.98,1.6c0,0-5.49,1.98-6.89,1.6c-1.4-0.38-3.34-2.17-3.34-2.17l0.66-3.7c0,0,9.32,0.26,12.13-2.29
	c2.81-2.56,5.87-6.26,5.87-6.26l1.15-2.86l-1.91,0.7l-1.28,1.52c0,0-4.72,3.45-5.11,4.21c-0.38,0.77,0.51,1.66-3.19,1.53
	c-3.7-0.13-7.15,0.64-7.15,0.64l-2.55-0.26l-0.81-2.77L36.41,23.28z"/>
<path id="tutu" class="st0" d="M32.54,34.32l10.86-2c0,0,6.94,4.68,5.51,5.72s-5.13,0.55-5.13,0.55s1.12,2.63-1.3,2.63
	c-2.42,0-4.14-1.52-4.14-1.52s-1.25,2.54-2.74,1.49c-1.49-1.04-3.54-0.61-3.54-0.61s-1.65,0.08-1-1.5S32.54,34.32,32.54,34.32z"/>
</svg>
